<?xml version="1.0" encoding="utf-8"?>
<!-- Generator: Adobe Illustrator 27.6.1, SVG Export Plug-In . SVG Version: 6.00 Build 0)  -->
<svg version="1.1" id="Layer_1" xmlns="http://www.w3.org/2000/svg" xmlns:xlink="http://www.w3.org/1999/xlink" x="0px" y="0px"
	 viewBox="0 0 296.29 100.88" style="enable-background:new 0 0 296.29 100.88;" xml:space="preserve">
<style type="text/css">
	.st0{fill:#191717;}
</style>
<g id="SEB_x5F_Logo_x5F_RichBlack_00000068663196626180198160000005866202745431742102_">
	<g>
		<rect y="32.57" class="st0" width="294.42" height="0.38"/>
	</g>
</g>
<g>
	<g>
		<path class="st0" d="M12.12,18.16c-0.25,0-0.3,0.04-0.4,0.24l-2.38,4.61c-0.45,0.85-0.66,1.7-0.66,2.1c0,0.61,0.4,0.97,1.77,0.97
			h0.66c0.56,0,0.66,0.16,0.66,0.36c0,0.28-0.25,0.36-0.71,0.36c-1.47,0-3.54-0.12-4.95-0.12c-0.46,0-2.83,0.12-5.15,0.12
			c-0.56,0-0.81-0.08-0.81-0.36c0-0.2,0.15-0.36,0.5-0.36c0.4,0,0.91-0.04,1.31-0.04c2.02-0.24,2.78-1.29,3.69-3.03L17.28,1.37
			C17.78,0.4,18.14,0,18.59,0c0.66,0,0.86,0.32,1.31,1.09c1.06,1.9,8.49,15.97,11.32,21.19c1.72,3.11,2.98,3.56,3.79,3.68
			c0.66,0.08,1.16,0.12,1.67,0.12c0.4,0,0.61,0.12,0.61,0.36c0,0.28-0.25,0.36-1.92,0.36c-1.57,0-4.8,0-8.54-0.08
			c-0.81-0.04-1.31-0.04-1.31-0.28c0-0.2,0.1-0.32,0.55-0.36c0.3-0.04,0.61-0.36,0.4-0.77l-3.44-6.92c-0.1-0.2-0.25-0.24-0.46-0.24
			H12.12z M21.62,16.25c0.2,0,0.25-0.08,0.2-0.2l-4.2-8.73C17.58,7.2,17.53,7,17.43,7c-0.15,0-0.2,0.2-0.25,0.32l-4.29,8.69
			c-0.1,0.16,0,0.24,0.15,0.24H21.62z"/>
		<path class="st0" d="M51.24,10.76c0-5.22,0-6.19-0.05-7.28c-0.1-1.17-0.51-1.54-1.92-1.86C48.92,1.54,48.16,1.5,47.5,1.5
			c-0.46,0-0.76-0.12-0.76-0.36c0-0.24,0.35-0.32,1.01-0.32c2.32,0,5.15,0.08,6.06,0.08c1.52,0,5.56-0.08,6.92-0.08
			c2.83,0,6.06,0.2,8.44,1.46c1.26,0.69,3.13,2.43,3.13,4.73c0,2.55-1.82,4.81-6.16,7.6c3.94,3.88,7.07,7,9.75,9.14
			c2.47,1.98,4.04,2.14,4.75,2.26c0.46,0.08,0.71,0.08,1.06,0.08s0.56,0.2,0.56,0.36c0,0.28-0.3,0.36-0.86,0.36h-4.25
			c-2.47,0-3.69-0.2-4.85-0.69c-1.92-0.77-3.59-2.39-6.06-5.05c-1.77-1.86-3.64-4.17-4.19-4.69c-0.25-0.2-0.51-0.24-0.81-0.24
			l-3.99-0.08c-0.2,0-0.36,0.08-0.36,0.28v0.49c0,3.19,0.05,5.86,0.25,7.32c0.15,1.01,0.35,1.66,1.72,1.82
			c0.66,0.08,1.62,0.12,2.17,0.12c0.35,0,0.56,0.2,0.56,0.36c0,0.24-0.35,0.36-0.91,0.36c-2.58,0-6.27-0.12-6.92-0.12
			c-0.86,0-3.69,0.12-5.46,0.12c-0.56,0-0.86-0.12-0.86-0.36c0-0.16,0.15-0.36,0.71-0.36c0.66,0,1.16-0.04,1.57-0.12
			c0.91-0.16,1.16-0.81,1.31-1.82c0.2-1.46,0.2-4.16,0.2-7.32V10.76z M56.9,13.42c0,0.36,0.1,0.48,0.4,0.61
			c0.96,0.24,2.28,0.32,3.39,0.32c1.77,0,2.38-0.12,3.13-0.57c1.37-0.77,2.88-2.26,2.88-5.09c0-4.85-4.14-6.11-6.77-6.11
			c-1.11,0-2.17,0.04-2.63,0.12c-0.3,0.08-0.4,0.2-0.4,0.49V13.42z"/>
		<path class="st0" d="M95.01,10.76c0-5.22,0-6.19-0.05-7.28c-0.1-1.17-0.56-1.58-1.52-1.82c-0.51-0.12-1.06-0.16-1.62-0.16
			c-0.46,0-0.71-0.08-0.71-0.4c0-0.2,0.36-0.28,1.06-0.28c1.67,0,4.7,0.08,5.96,0.08c1.11,0,3.99-0.08,5.71-0.08
			c0.56,0,0.91,0.08,0.91,0.28c0,0.32-0.25,0.4-0.71,0.4c-0.45,0-0.81,0.04-1.31,0.12c-1.21,0.16-1.57,0.65-1.67,1.86
			c-0.1,1.09-0.1,2.06-0.1,7.28v6.07c0,3.32,0,6.07,0.2,7.52c0.15,0.93,0.45,1.46,1.77,1.62c0.61,0.08,1.62,0.12,2.28,0.12
			c0.5,0,0.71,0.2,0.71,0.36c0,0.24-0.35,0.36-0.86,0.36c-2.93,0-5.96-0.12-7.18-0.12c-1.01,0-4.04,0.12-5.81,0.12
			c-0.56,0-0.86-0.12-0.86-0.36c0-0.16,0.15-0.36,0.71-0.36c0.66,0,1.16-0.04,1.57-0.12c0.91-0.16,1.16-0.65,1.31-1.66
			c0.2-1.42,0.2-4.17,0.2-7.48V10.76z"/>
		<path class="st0" d="M138.17,24.63c4.55,0,6.12-0.73,6.87-1.78c0.35-0.53,0.66-1.09,0.81-1.58c0.1-0.36,0.2-0.57,0.51-0.57
			c0.35,0,0.45,0.24,0.45,1.05c0,1.13-0.55,3.36-0.86,4.21c-0.25,0.61-0.56,0.89-1.37,0.89c-7.43,0-14.96-0.16-23.96-0.16
			c-0.51,0-0.76-0.12-0.76-0.36c0-0.2,0.05-0.4,0.56-1.01c6.27-7.56,12.73-15.33,18.7-22.4h-8.39c-2.27,0-4.9,0-6.32,0.61
			c-1.47,0.65-2.28,1.82-2.38,2.63c-0.1,0.49-0.3,0.61-0.56,0.61c-0.3,0-0.45-0.16-0.45-0.57c0-0.81,0.66-3.92,0.91-4.97
			c0.05-0.49,0.25-0.65,0.51-0.65c0.4,0,0.66,0.2,1.77,0.24c4.25,0.12,6.37,0.08,8.19,0.08h13.7c0.46,0,0.76,0.12,0.76,0.28
			c0,0.28-0.1,0.4-0.25,0.65c-6.17,7.72-12.84,15.57-19.1,22.81H138.17z"/>
		<path class="st0" d="M160.41,13.79c0-5.86,5.16-13.46,18.65-13.46c11.22,0,18.19,4.97,18.19,12.86c0,7.88-7.18,14.07-18.65,14.07
			C165.67,27.25,160.41,19.89,160.41,13.79z M190.64,14.44c0-7.6-5.71-12.29-12.89-12.29c-4.95,0-10.76,2.1-10.76,10.59
			c0,7.08,5.05,12.66,13.44,12.66C183.56,25.39,190.64,24.22,190.64,14.44z"/>
		<path class="st0" d="M218.94,22.12c0.1,2.67,0.66,3.48,1.52,3.72c0.76,0.2,1.62,0.24,2.32,0.24c0.51,0,0.76,0.16,0.76,0.36
			c0,0.28-0.4,0.36-1.01,0.36c-2.88,0-4.95-0.12-5.76-0.12c-0.4,0-2.53,0.12-4.8,0.12c-0.61,0-1.01-0.04-1.01-0.36
			c0-0.2,0.3-0.36,0.71-0.36c0.61,0,1.42-0.04,2.02-0.16c1.16-0.24,1.31-1.17,1.37-4.16l0.4-20.38c0-0.69,0.3-1.17,0.76-1.17
			c0.56,0,1.16,0.53,1.92,1.13c0.56,0.44,7.23,5.9,13.7,10.96c3.03,2.39,8.94,7.24,9.6,7.72h0.2l-0.46-15.28
			c-0.05-2.1-0.45-2.71-1.52-3.03c-0.66-0.2-1.72-0.2-2.32-0.2c-0.56,0-0.71-0.16-0.71-0.36c0-0.28,0.46-0.32,1.11-0.32
			c2.32,0,4.7,0.08,5.66,0.08c0.51,0,2.17-0.08,4.35-0.08c0.61,0,1.01,0.04,1.01,0.32c0,0.2-0.25,0.36-0.76,0.36
			c-0.46,0-0.81,0-1.37,0.12c-1.21,0.28-1.57,0.89-1.62,2.83l-0.51,21.67c0,0.77-0.35,1.09-0.71,1.09c-0.76,0-1.37-0.37-1.82-0.73
			c-2.78-2.06-8.34-6.31-12.99-9.91c-4.85-3.72-9.55-7.89-10.41-8.49h-0.15L218.94,22.12z"/>
		<path class="st0" d="M269.69,18.16c-0.25,0-0.3,0.04-0.4,0.24l-2.38,4.61c-0.45,0.85-0.66,1.7-0.66,2.1c0,0.61,0.4,0.97,1.77,0.97
			h0.66c0.56,0,0.66,0.16,0.66,0.36c0,0.28-0.25,0.36-0.71,0.36c-1.46,0-3.54-0.12-4.95-0.12c-0.45,0-2.83,0.12-5.15,0.12
			c-0.55,0-0.81-0.08-0.81-0.36c0-0.2,0.15-0.36,0.51-0.36c0.4,0,0.91-0.04,1.31-0.04c2.02-0.24,2.78-1.29,3.69-3.03l11.62-21.63
			C275.35,0.4,275.7,0,276.16,0c0.66,0,0.86,0.32,1.31,1.09c1.06,1.9,8.49,15.97,11.32,21.19c1.72,3.11,2.98,3.56,3.79,3.68
			c0.66,0.08,1.16,0.12,1.67,0.12c0.4,0,0.61,0.12,0.61,0.36c0,0.28-0.25,0.36-1.92,0.36c-1.57,0-4.8,0-8.54-0.08
			c-0.81-0.04-1.31-0.04-1.31-0.28c0-0.2,0.1-0.32,0.56-0.36c0.3-0.04,0.61-0.36,0.4-0.77l-3.44-6.92c-0.1-0.2-0.25-0.24-0.46-0.24
			H269.69z M279.19,16.25c0.2,0,0.25-0.08,0.2-0.2l-4.2-8.73c-0.05-0.12-0.1-0.32-0.2-0.32c-0.15,0-0.2,0.2-0.25,0.32l-4.29,8.69
			c-0.1,0.16,0,0.24,0.15,0.24H279.19z"/>
	</g>
	<g>
		<g>
			<path class="st0" d="M7.65,61.87c0-12.81,0-15.11-0.16-17.74c-0.16-2.79-0.82-4.11-3.53-4.68C3.3,39.28,1.91,39.2,1.17,39.2
				c-0.33,0-0.66-0.16-0.66-0.49c0-0.49,0.41-0.66,1.31-0.66c3.7,0,8.87,0.25,9.28,0.25c1.97,0,5.17-0.25,8.95-0.25
				c13.47,0,16.43,8.21,16.43,12.32c0,6.74-3.86,10.76-7.72,14.79c6.08,1.89,14.21,7.72,14.21,17.33c0,8.79-6.9,17.91-20.95,17.91
				c-0.9,0-3.53-0.17-5.91-0.25c-2.38-0.16-4.68-0.25-5.01-0.25c-0.16,0-1.56,0-3.29,0.08c-1.64,0-3.53,0.16-4.76,0.16
				c-0.9,0-1.31-0.16-1.31-0.66c0-0.25,0.17-0.49,0.66-0.49c0.74,0,1.72-0.16,2.46-0.33c1.64-0.33,2.05-2.13,2.38-4.52
				c0.41-3.45,0.41-9.94,0.41-17.82V61.87z M14.23,63.67c0,0.58,0.16,0.74,0.57,0.9c0.49,0.08,1.97,0.33,5.01,0.33
				c4.6,0,5.75-0.16,7.48-2.13c1.72-1.97,2.96-4.93,2.96-8.3c0-6.82-3.04-14.13-11.09-14.13c-0.9,0-2.63,0.08-3.94,0.41
				c-0.74,0.16-0.98,0.41-0.98,0.9V63.67z M14.23,72.38c0,6.33,0,16.51,0.08,17.74c0.25,4.02,0.25,5.17,2.79,6.41
				c2.22,1.07,5.75,1.23,7.23,1.23c4.44,0,11.58-2.38,11.58-11.66c0-4.93-1.64-12.07-7.97-16.43c-2.79-1.89-4.85-2.14-6.82-2.38
				c-1.07-0.17-5.17-0.17-6.41-0.17c-0.33,0-0.49,0.17-0.49,0.58V72.38z"/>
		</g>
		<g>
			<path class="st0" d="M69.01,61.87c0-12.81,0-15.11-0.16-17.74c-0.16-2.79-0.82-4.11-3.53-4.68c-0.66-0.16-2.05-0.25-2.79-0.25
				c-0.33,0-0.66-0.16-0.66-0.49c0-0.49,0.41-0.66,1.31-0.66c3.7,0,8.87,0.25,9.28,0.25c0.9,0,7.15-0.25,9.69-0.25
				c5.18,0,10.68,0.49,15.03,3.62c2.05,1.48,5.67,5.5,5.67,11.17c0,6.08-2.55,12.16-9.94,18.97c6.74,8.62,12.32,15.93,17.09,21.03
				c4.44,4.68,7.97,5.58,10.02,5.91c1.56,0.25,2.71,0.25,3.21,0.25c0.41,0,0.74,0.25,0.74,0.49c0,0.49-0.49,0.66-1.97,0.66h-5.83
				c-4.6,0-6.65-0.41-8.79-1.56c-3.53-1.89-6.41-5.91-11.09-12.07c-3.45-4.52-7.31-10.02-8.95-12.16c-0.33-0.33-0.58-0.49-1.07-0.49
				l-10.1-0.16c-0.41,0-0.57,0.25-0.57,0.66v1.97c0,7.88,0,14.37,0.41,17.82c0.25,2.38,0.74,4.19,3.2,4.52
				c1.15,0.16,2.96,0.33,3.7,0.33c0.49,0,0.66,0.25,0.66,0.49c0,0.41-0.41,0.66-1.31,0.66c-4.52,0-9.69-0.25-10.1-0.25
				c-0.08,0-5.26,0.25-7.72,0.25c-0.9,0-1.31-0.16-1.31-0.66c0-0.25,0.16-0.49,0.66-0.49c0.74,0,1.72-0.16,2.46-0.33
				c1.64-0.33,2.05-2.13,2.38-4.52c0.41-3.45,0.41-9.94,0.41-17.82V61.87z M75.58,69.01c0,0.41,0.16,0.74,0.57,0.99
				c1.23,0.74,5.01,1.31,8.62,1.31c1.97,0,4.27-0.25,6.16-1.56c2.88-1.97,5.01-6.41,5.01-12.65c0-10.27-5.42-16.43-14.21-16.43
				c-2.46,0-4.68,0.25-5.5,0.49c-0.41,0.16-0.66,0.49-0.66,0.99V69.01z"/>
		</g>
		<g>
			<path class="st0" d="M146.88,76.32c0,7.88,0,14.37,0.41,17.82c0.25,2.38,0.74,4.19,3.2,4.52c1.15,0.16,2.96,0.33,3.7,0.33
				c0.49,0,0.66,0.25,0.66,0.49c0,0.41-0.41,0.66-1.31,0.66c-4.52,0-9.69-0.25-10.1-0.25c-0.41,0-5.58,0.25-8.05,0.25
				c-0.9,0-1.31-0.16-1.31-0.66c0-0.25,0.16-0.49,0.66-0.49c0.74,0,1.73-0.16,2.46-0.33c1.64-0.33,2.05-2.13,2.38-4.52
				c0.41-3.45,0.41-9.94,0.41-17.82V61.87c0-12.81,0-15.11-0.16-17.74c-0.16-2.79-0.99-4.19-2.79-4.6c-0.9-0.25-1.97-0.33-2.55-0.33
				c-0.33,0-0.66-0.16-0.66-0.49c0-0.49,0.41-0.66,1.31-0.66c2.71,0,7.88,0.25,8.29,0.25c0.41,0,5.59-0.25,8.05-0.25
				c0.9,0,1.31,0.17,1.31,0.66c0,0.33-0.33,0.49-0.66,0.49c-0.57,0-1.07,0.08-2.05,0.25c-2.22,0.41-2.88,1.81-3.04,4.68
				c-0.16,2.63-0.16,4.93-0.16,17.74V76.32z"/>
		</g>
		<g>
			<path class="st0" d="M182.69,61.87c0-12.81,0-15.11-0.16-17.74c-0.16-2.79-0.82-4.11-3.53-4.68c-0.66-0.16-2.05-0.25-2.79-0.25
				c-0.33,0-0.66-0.16-0.66-0.49c0-0.49,0.41-0.66,1.31-0.66c3.7,0,8.87,0.25,9.28,0.25c0.99,0,6.16-0.25,11.09-0.25
				c8.13,0,23.16-0.74,32.94,9.36c4.11,4.27,7.97,11.09,7.97,20.86c0,10.35-4.27,18.32-8.87,23.16c-3.53,3.7-10.92,9.45-24.89,9.45
				c-3.53,0-7.88-0.25-11.42-0.49c-3.62-0.25-6.41-0.49-6.82-0.49c-0.16,0-1.56,0-3.29,0.08c-1.64,0-3.53,0.16-4.76,0.16
				c-0.9,0-1.31-0.16-1.31-0.66c0-0.25,0.16-0.49,0.66-0.49c0.74,0,1.73-0.16,2.46-0.33c1.64-0.33,2.05-2.13,2.38-4.52
				c0.41-3.45,0.41-9.94,0.41-17.82V61.87z M189.59,70.74c0,8.71,0.08,16.26,0.16,17.82c0.08,2.05,0.25,5.34,0.9,6.24
				c1.07,1.56,4.27,3.29,13.96,3.29c7.64,0,14.7-2.79,19.55-7.64c4.27-4.19,6.57-12.07,6.57-19.63c0-10.43-4.52-17.17-7.88-20.7
				c-7.72-8.13-17.09-9.28-26.86-9.28c-1.64,0-4.68,0.25-5.34,0.58c-0.74,0.33-0.98,0.74-0.98,1.64c-0.08,2.79-0.08,11.17-0.08,17.5
				V70.74z"/>
			<path class="st0" d="M267.05,61.87c0-12.81,0-15.11-0.16-17.74c-0.16-2.79-0.82-4.11-3.53-4.68c-0.66-0.16-2.05-0.25-2.79-0.25
				c-0.33,0-0.66-0.16-0.66-0.49c0-0.49,0.41-0.66,1.31-0.66c1.89,0,4.11,0,5.91,0.08l3.37,0.16c0.58,0,16.92,0,18.81-0.08
				c1.56-0.08,2.88-0.25,3.53-0.41c0.41-0.08,0.74-0.41,1.15-0.41c0.25,0,0.33,0.33,0.33,0.74c0,0.58-0.41,1.56-0.66,3.86
				c-0.08,0.82-0.25,4.44-0.41,5.42c-0.08,0.41-0.25,0.9-0.57,0.9c-0.49,0-0.66-0.41-0.66-1.07c0-0.58-0.08-1.97-0.49-2.96
				c-0.57-1.31-1.4-2.3-5.83-2.79c-1.4-0.16-10.35-0.25-11.25-0.25c-0.33,0-0.49,0.25-0.49,0.82v22.67c0,0.58,0.08,0.82,0.49,0.82
				c1.07,0,11.17,0,13.06-0.16c1.97-0.16,3.12-0.33,3.86-1.15c0.58-0.66,0.9-1.07,1.23-1.07c0.25,0,0.41,0.16,0.41,0.66
				c0,0.49-0.41,1.89-0.66,4.6c-0.16,1.64-0.33,4.68-0.33,5.26c0,0.66,0,1.56-0.58,1.56c-0.41,0-0.57-0.33-0.57-0.74
				c0-0.82,0-1.64-0.33-2.71c-0.33-1.15-1.07-2.55-4.27-2.88c-2.22-0.25-10.35-0.41-11.75-0.41c-0.41,0-0.57,0.25-0.57,0.58v7.23
				c0,2.79-0.08,12.32,0,14.04c0.25,5.67,1.48,6.74,9.53,6.74c2.13,0,5.75,0,7.88-0.9c2.14-0.9,3.12-2.55,3.7-5.91
				c0.16-0.9,0.33-1.23,0.74-1.23c0.49,0,0.49,0.66,0.49,1.23c0,0.66-0.66,6.24-1.07,7.97c-0.58,2.14-1.23,2.14-4.44,2.14
				c-6.16,0-10.68-0.17-13.88-0.25c-3.2-0.16-5.18-0.25-6.41-0.25c-0.16,0-1.56,0-3.29,0.08c-1.64,0-3.53,0.16-4.76,0.16
				c-0.9,0-1.31-0.16-1.31-0.66c0-0.25,0.16-0.49,0.66-0.49c0.74,0,1.73-0.16,2.46-0.33c1.64-0.33,2.05-2.13,2.38-4.52
				c0.41-3.45,0.41-9.94,0.41-17.82V61.87z"/>
		</g>
	</g>
</g>
</svg>
